<svg width="415" height="40" viewBox="0 0 415 40" fill="none" xmlns="http://www.w3.org/2000/svg">
<path d="M163.087 1.6352C162.773 1.62173 162.446 1.61725 162.149 1.69354C161.943 1.7474 161.692 1.90898 161.611 2.09299C161.148 3.1522 160.709 4.22037 160.305 5.30201C159.919 6.33428 159.6 7.389 159.219 8.41678C158.725 9.74078 158.191 11.0513 157.684 12.3708C157.482 12.8959 157.325 13.439 157.127 13.9641C156.835 14.7361 156.512 15.4991 156.22 16.271C155.812 17.3616 155.417 18.4567 155.018 19.5518C154.686 20.4585 154.349 21.3606 154.012 22.2627C153.568 23.4565 153.128 24.6549 152.675 25.8442C152.195 27.1099 151.705 28.371 151.216 29.6322C150.889 30.476 150.547 31.3153 150.206 32.1545C150.175 32.2308 150.072 32.3161 149.991 32.3296C149.933 32.3385 149.816 32.2488 149.789 32.1815C149.609 31.7237 149.443 31.2569 149.282 30.7901C149.143 30.3952 149.021 29.9913 148.869 29.5963C148.501 28.6493 148.124 27.7023 147.738 26.7598C147.37 25.8667 146.975 24.9825 146.62 24.0804C146.275 23.1917 145.979 22.2851 145.642 21.392C145.449 20.8803 145.22 20.3777 145.009 19.8705C144.677 19.0671 144.349 18.2682 144.026 17.4649C143.725 16.7153 143.429 15.9613 143.129 15.2073C142.738 14.2379 142.334 13.2729 141.953 12.299C141.755 11.7874 141.585 11.2623 141.423 10.7371C141.387 10.6204 141.41 10.4679 141.454 10.3512C141.831 9.37724 142.222 8.40331 142.608 7.42938C142.913 6.66191 143.223 5.89893 143.515 5.12697C143.663 4.7365 143.757 4.3236 143.896 3.92864C144.094 3.35865 144.318 2.79763 144.515 2.22763C144.672 1.76536 144.524 1.58584 144.04 1.60379C143.775 1.61725 143.501 1.59032 143.254 1.67111C143.021 1.74741 142.738 1.88205 142.626 2.07504C142.339 2.56873 142.096 3.10282 141.899 3.64139C141.419 4.96988 140.974 6.31185 140.508 7.64931C140.481 7.72112 140.395 7.81087 140.328 7.81985C140.27 7.82434 140.166 7.73907 140.144 7.67175C139.785 6.73373 139.43 5.79121 139.08 4.8487C138.78 4.03635 138.474 3.22849 138.201 2.40716C138.021 1.86858 137.653 1.6756 137.123 1.68457C135.795 1.70701 134.462 1.71599 133.133 1.73843C132.285 1.75189 132.133 1.85064 132.46 2.82456C132.725 3.61896 133.089 4.37745 133.398 5.15839C133.82 6.21759 134.238 7.2768 134.655 8.336C135.207 9.74078 135.755 11.1456 136.298 12.5504C136.405 12.8286 136.473 13.1293 136.585 13.4076C136.832 14.018 137.114 14.6104 137.339 15.2298C137.411 15.4317 137.411 15.7055 137.339 15.9075C136.872 17.1911 136.378 18.4612 135.894 19.7359C135.135 21.7196 134.372 23.7034 133.618 25.6916C133.376 26.3289 133.178 26.9842 132.94 27.626C132.474 28.8692 131.998 30.1035 131.513 31.3377C131.334 31.791 131.118 32.2353 130.921 32.6797C130.871 32.6707 130.822 32.6572 130.773 32.6482C130.728 32.5585 130.674 32.4687 130.638 32.3745C130.31 31.5172 129.983 30.6555 129.66 29.7938C129.404 29.1071 129.157 28.4159 128.906 27.7292C128.811 27.4734 128.722 27.2131 128.618 26.9618C128.295 26.1629 127.954 25.3685 127.64 24.5606C127.447 24.0624 127.303 23.5418 127.106 23.0391C126.783 22.2133 126.428 21.4054 126.101 20.5796C125.791 19.8032 125.508 19.0223 125.198 18.2458C124.871 17.42 124.512 16.6031 124.193 15.7728C124.014 15.3106 123.901 14.8213 123.713 14.3591C123.143 12.9633 122.546 11.5764 121.976 10.1761C121.864 9.89786 121.859 9.57921 121.752 9.30094C121.509 8.68158 121.217 8.08466 120.975 7.4653C120.544 6.37019 120.136 5.26161 119.709 4.16202C119.494 3.601 119.274 3.0355 119.036 2.48346C118.879 2.11992 118.78 1.69355 118.237 1.70253C116.761 1.72048 115.289 1.7115 113.812 1.74292C113.179 1.75639 113.036 1.98079 113.251 2.58669C113.736 3.91967 114.229 5.24815 114.75 6.57215C115.257 7.86473 115.809 9.13937 116.33 10.4275C116.572 11.0334 116.788 11.6482 117.026 12.2586C117.483 13.43 117.95 14.6014 118.412 15.7728C119.09 17.5097 119.772 19.2422 120.446 20.9791C120.962 22.3255 121.451 23.6809 121.976 25.0229C122.483 26.3155 123.035 27.5946 123.542 28.8872C123.821 29.5963 124.041 30.3279 124.314 31.037C124.624 31.8404 124.983 32.6303 125.297 33.4337C125.616 34.246 125.899 35.0763 126.222 35.8931C126.522 36.6472 126.859 37.3877 127.169 38.1417C127.366 38.6264 127.532 38.7386 128.053 38.7701C128.574 38.797 129.099 38.8374 129.615 38.9002C130.315 38.99 130.773 38.7297 131.042 38.0654C131.311 37.4012 131.59 36.7369 131.85 36.0682C132.074 35.4982 132.281 34.9192 132.496 34.3492C132.792 33.5683 133.107 32.7963 133.389 32.0064C133.672 31.221 133.914 30.4132 134.206 29.6322C134.597 28.591 135.023 27.5677 135.418 26.5309C135.795 25.539 136.141 24.5337 136.509 23.5418C136.877 22.5454 137.281 21.558 137.626 20.5572C137.868 19.8481 138.313 19.2018 138.353 18.4208C138.353 18.358 138.394 18.2952 138.434 18.1785C138.551 18.358 138.596 18.4074 138.618 18.4612C138.892 19.1524 139.166 19.8436 139.43 20.5392C139.78 21.4593 140.113 22.3839 140.463 23.3039C140.727 23.9996 141.01 24.6908 141.279 25.3819C141.504 25.9564 141.71 26.5399 141.939 27.1099C142.24 27.8504 142.563 28.5865 142.873 29.3225C143.102 29.8611 143.34 30.3997 143.546 30.9472C144.013 32.177 144.462 33.4112 144.928 34.6365C145.265 35.5296 145.597 36.4272 145.961 37.3114C146.131 37.7198 146.333 38.1238 146.589 38.4873C146.697 38.6399 146.961 38.7341 147.163 38.7566C147.814 38.8284 148.474 38.8598 149.125 38.8957C149.502 38.9182 149.834 38.8284 150.009 38.4424C150.251 37.8904 150.503 37.3428 150.736 36.7863C151.095 35.9201 151.463 35.0584 151.791 34.1832C152.159 33.1913 152.473 32.177 152.836 31.1851C153.451 29.5065 154.093 27.8324 154.721 26.1584C155.148 25.0184 155.574 23.8784 156.005 22.7384C156.44 21.585 156.867 20.427 157.307 19.2736C157.935 17.6309 158.572 15.9972 159.196 14.3546C159.358 13.9282 159.47 13.4794 159.627 13.0485C159.771 12.6401 159.941 12.2452 160.098 11.8412C160.417 11.0244 160.74 10.2031 161.059 9.38622C161.431 8.43025 161.808 7.47876 162.167 6.52278C162.508 5.61618 162.84 4.70509 163.155 3.78502C163.325 3.27786 163.478 2.76172 163.59 2.2411C163.671 1.85063 163.505 1.65764 163.11 1.63969L163.087 1.6352ZM105.356 1.33899C105.347 0.78695 105.204 0.656795 104.661 0.652307C103.359 0.638842 102.053 0.638842 100.752 0.652307C100.2 0.656795 100.047 0.804897 100.016 1.36143C99.9751 2.03016 99.9662 2.70338 99.9617 3.3766C99.9258 13.8699 99.8943 24.3631 99.8629 34.8564C99.8629 35.0808 99.8899 35.3052 99.8719 35.5251C99.8719 35.597 99.7732 35.6598 99.7193 35.7226C99.661 35.6643 99.5847 35.6149 99.5532 35.5476C99.2884 34.9821 99.0595 34.3986 98.7723 33.8466C98.328 32.9893 97.8388 32.15 97.3765 31.3018C97.0713 30.7408 96.793 30.1663 96.4789 29.6098C96.1827 29.0846 95.855 28.582 95.5498 28.0658C95.312 27.6619 95.0786 27.2535 94.8587 26.8361C94.5265 26.1988 94.2258 25.5435 93.8892 24.9107C93.1936 23.6091 92.4844 22.3121 91.7663 21.0195C91.2367 20.068 90.6802 19.1344 90.1461 18.1875C89.5896 17.1956 89.042 16.1947 88.499 15.1939C88.0232 14.3232 87.5654 13.4435 87.0897 12.5728C86.6813 11.8278 86.2504 11.0917 85.842 10.3422C85.3034 9.3548 84.7783 8.35844 84.2397 7.36656C83.8672 6.67987 83.4902 6.00216 83.1132 5.31997C82.4669 4.14856 81.6949 3.03101 81.2057 1.79678C80.7479 0.647813 79.985 0.540101 78.9751 0.607423C78.0057 0.670257 77.0273 0.629865 76.0534 0.665771C75.5103 0.688211 75.4071 0.786946 75.3532 1.32103C75.3038 1.80575 75.2904 2.29496 75.2904 2.77968C75.2904 13.4076 75.2994 24.031 75.3038 34.6589C75.3038 35.7405 75.3038 36.8177 75.3308 37.8994C75.3487 38.4963 75.4968 38.6534 76.0893 38.6803C77.0363 38.7207 77.9833 38.7162 78.9303 38.7252C79.2848 38.7252 79.6439 38.7342 79.9984 38.7162C80.5101 38.6893 80.6492 38.5457 80.6806 38.043C80.7031 37.7019 80.7165 37.3608 80.7165 37.0152C80.7165 31.7371 80.712 26.4546 80.7076 21.1766C80.7031 16.2127 80.6941 11.2488 80.6896 6.28491C80.6896 6.20413 80.721 6.11886 80.7524 5.97972C80.8422 6.07397 80.905 6.12334 80.9364 6.18168C81.1205 6.54073 81.282 6.91325 81.4795 7.26332C81.7757 7.78395 82.1123 8.28662 82.413 8.80725C82.7811 9.44007 83.1311 10.0819 83.4902 10.7192C83.7685 11.2039 84.0602 11.6841 84.3295 12.1733C84.5315 12.5414 84.693 12.9274 84.8905 13.2954C85.4605 14.3456 86.0484 15.3869 86.6229 16.4371C86.9191 16.9757 87.2019 17.5232 87.4981 18.0618C87.7898 18.5869 88.113 19.0985 88.4002 19.6236C88.8401 20.427 89.2575 21.2484 89.6973 22.0517C90.1955 22.9628 90.7161 23.856 91.2143 24.7626C91.5464 25.3685 91.8471 25.9968 92.1837 26.6027C92.6729 27.4869 93.198 28.3531 93.6828 29.2373C94.1181 30.0317 94.5086 30.844 94.9439 31.6339C95.469 32.5854 96.0435 33.51 96.5641 34.4704C97.179 35.6014 97.7535 36.7549 98.3504 37.8994C98.6062 38.3841 98.9743 38.6893 99.5712 38.6758C100.217 38.6623 100.859 38.7027 101.506 38.7117C102.547 38.7207 103.588 38.7252 104.625 38.7252C105.24 38.7252 105.338 38.6264 105.383 38.0295C105.406 37.7288 105.41 37.4236 105.41 37.1229C105.406 26.9169 105.397 16.7109 105.388 6.50932C105.388 4.78588 105.379 3.06243 105.352 1.3345L105.356 1.33899ZM33.1782 37.9083C32.8146 37.28 32.4376 36.6606 32.0786 36.0278C31.7869 35.5162 31.531 34.991 31.2393 34.4794C30.602 33.3708 29.9512 32.2667 29.3139 31.1582C29.2107 30.9786 29.1748 30.7632 29.0715 30.5837C28.699 29.9284 28.313 29.2821 27.9316 28.6358C27.6129 28.0928 27.3301 27.5273 26.9666 27.0201C26.5133 26.3918 25.9882 25.8218 25.5035 25.2159C24.4353 23.8919 23.0933 22.9314 21.5674 22.2133C21.0288 21.9575 20.4633 21.7645 19.9068 21.5446C19.9068 21.5042 19.9068 21.4638 19.9068 21.4234C20.2658 21.3965 20.6294 21.4054 20.9794 21.3426C22.5233 21.0643 24.0358 20.6694 25.4541 19.9827C26.419 19.516 27.366 19.0178 28.1335 18.2368C28.3624 18.0034 28.6093 17.7925 28.8382 17.5591C29.1748 17.218 29.5518 16.8994 29.8166 16.5089C30.1891 15.9569 30.4943 15.3599 30.7905 14.763C31.1495 14.0314 31.4368 13.2774 31.4143 12.4337C31.3874 11.4193 31.4278 10.405 31.3605 9.39519C31.3291 8.91047 31.172 8.41677 30.979 7.96347C30.7321 7.37553 30.4045 6.819 30.0993 6.25799C29.48 5.11351 28.6137 4.17997 27.5366 3.46187C26.8544 3.00857 26.2036 2.50141 25.3913 2.24559C24.6507 2.01221 23.9595 1.63969 23.228 1.36143C22.9003 1.23576 22.5368 1.21781 22.1957 1.12356C21.7065 0.984423 21.2352 0.773485 20.7371 0.679234C19.8349 0.508685 18.9239 0.324665 18.0083 0.279784C15.9078 0.176556 13.7984 0.055374 11.698 0.122696C8.61012 0.225923 5.52228 0.48624 2.43893 0.688206C1.93177 0.724111 1.42012 0.791429 0.921939 0.894656C0.5584 0.966466 0.333993 1.24025 0.271159 1.61276C0.230766 1.84614 0.194861 2.07953 0.190373 2.3174C0.181396 3.47534 0.181396 4.63328 0.181396 5.79122C0.181396 16.2172 0.181396 26.6476 0.190373 37.0735C0.190373 37.3608 0.203837 37.6525 0.248719 37.9397C0.333993 38.4648 0.562888 38.6848 1.09698 38.6982C2.35814 38.7386 3.6238 38.7566 4.88945 38.7745C5.21709 38.779 5.41008 38.6219 5.41456 38.2763C5.41456 38.1462 5.42803 38.0161 5.42803 37.8814C5.43252 32.8367 5.43701 27.7966 5.43701 22.7519C5.43701 22.2402 5.44149 22.2043 5.95763 22.2043C8.72232 22.1998 11.487 22.2268 14.2517 22.1954C15.6206 22.1774 16.7067 22.8013 17.7345 23.5687C18.6321 24.242 19.3816 25.0678 20.0279 25.9923C20.6563 26.8944 21.334 27.7651 21.9219 28.6987C22.649 29.8521 23.3043 31.0504 23.9955 32.2219C24.4353 32.9669 24.8886 33.7029 25.3329 34.4435C26.0465 35.6373 26.7736 36.8267 27.4693 38.0295C27.7161 38.4604 28.0348 38.7072 28.533 38.7027C29.2421 38.7027 29.9557 38.6982 30.6648 38.6982C31.4143 38.6982 32.1639 38.7027 32.9134 38.7072C33.3891 38.7072 33.4609 38.604 33.2904 38.1507C33.259 38.0654 33.2276 37.9757 33.1827 37.8994L33.1782 37.9083ZM18.0173 19.8525C16.6394 20.1757 15.2481 20.1443 13.8523 20.1488C11.2312 20.1622 8.61012 20.1578 5.99353 20.1488C5.45945 20.1488 5.45047 20.1218 5.45047 19.5788C5.45047 16.8141 5.45047 14.0494 5.45047 11.2802H5.46842C5.46842 8.52898 5.46842 5.77776 5.46842 3.02204C5.46842 2.34882 5.49984 2.34433 6.18652 2.29945C6.97195 2.24559 7.75737 2.16032 8.5428 2.07953C11.0786 1.81473 13.6189 1.81922 16.1547 2.03914C17.1466 2.12441 18.1564 2.23662 19.1079 2.51488C20.7864 3.00858 22.4515 3.6055 23.6409 4.99682C24.4757 5.97075 25.0322 7.09727 25.3868 8.34497C25.885 10.0774 25.7638 11.747 25.2611 13.4704C24.938 14.5745 24.3904 15.5305 23.7576 16.4281C23.2818 17.1013 22.5996 17.6354 21.9623 18.1785C20.8313 19.1524 19.431 19.516 18.0128 19.8436L18.0173 19.8525ZM346.778 34.8609C346.468 34.3268 346.132 33.8107 345.826 33.2766C345.342 32.4373 344.879 31.5845 344.39 30.7453C343.928 29.9509 343.439 29.1699 342.976 28.38C342.37 27.3388 341.778 26.284 341.172 25.2383C340.355 23.8335 339.579 22.4018 338.704 21.0284C338.129 20.1263 337.433 19.305 336.756 18.4702C335.984 17.5232 334.835 17.1776 333.776 16.7064C332.995 16.3608 332.146 16.464 331.321 16.4685C331.155 16.4685 330.993 16.4685 330.751 16.4685C330.818 16.3204 330.831 16.262 330.863 16.2306C331.343 15.7459 331.823 15.2612 332.313 14.781C334.121 13.0037 335.903 11.1949 337.748 9.45354C339.027 8.24623 340.355 7.08828 341.729 5.99767C342.321 5.52641 343.017 5.12249 343.834 5.0821C344.516 5.04619 344.668 4.92052 344.682 4.22037C344.704 3.31376 344.682 2.40716 344.655 1.49607C344.65 1.30308 344.552 0.988914 344.439 0.957497C344.264 0.917104 344.04 1.06072 343.843 1.15048C343.766 1.18639 343.712 1.27615 343.645 1.34347C343.277 1.7115 342.909 2.08402 342.537 2.44756C342.011 2.95921 341.473 3.46187 340.952 3.978C340.342 4.5839 339.745 5.20327 339.13 5.80468C338.618 6.30735 338.089 6.79656 337.582 7.30372C336.567 8.31804 335.566 9.34582 334.552 10.3646C334.305 10.6115 334.054 10.8538 333.798 11.0962C333.183 11.6752 332.564 12.2497 331.953 12.8376C331.433 13.3358 330.926 13.8474 330.414 14.3546C329.548 15.2118 328.691 16.0691 327.82 16.9263C327.762 16.9846 327.645 17.0744 327.609 17.052C327.533 17.0071 327.456 16.9038 327.447 16.8186C327.394 16.3339 327.326 15.8491 327.322 15.3644C327.308 13.3762 327.322 11.3879 327.322 9.39968C327.322 6.819 327.322 4.23832 327.313 1.65765C327.313 0.840804 327.043 0.477259 326.325 0.459306C325.091 0.427889 323.852 0.463803 322.614 0.481755C322.299 0.481755 322.129 0.661279 322.102 0.970961C322.075 1.31206 322.044 1.65316 322.044 1.99426C322.044 5.86752 322.053 9.7363 322.053 13.6096C322.062 21.4055 322.066 29.2013 322.075 36.9972C322.075 37.6435 322.102 38.2853 322.133 38.9316C322.151 39.2503 322.322 39.4478 322.659 39.4523C323.884 39.4612 325.109 39.4747 326.334 39.4657C326.837 39.4657 327.088 39.2503 327.196 38.7611C327.263 38.4424 327.295 38.1103 327.295 37.7827C327.304 32.0289 327.317 26.2706 327.304 20.5168C327.304 19.7897 327.47 19.2511 328.237 19.0447C328.309 19.0267 328.367 18.9415 328.439 18.928C328.691 18.8876 328.978 18.7709 329.189 18.8517C329.938 19.1434 330.656 19.5518 331.128 20.2116C331.698 21.006 332.178 21.8677 332.672 22.716C333.188 23.6091 333.668 24.5247 334.175 25.4223C334.835 26.5848 335.508 27.7382 336.177 28.8962C336.424 29.327 336.671 29.7624 336.922 30.1887C337.492 31.1627 338.075 32.1276 338.636 33.106C339.292 34.255 339.924 35.4129 340.566 36.5709C340.957 37.271 341.32 37.9846 341.742 38.6623C342.034 39.1336 342.37 39.5241 343.057 39.4702C344.067 39.3939 345.081 39.4388 346.096 39.4298C346.791 39.4298 347.491 39.4478 348.187 39.4074C348.82 39.3715 349.058 38.8778 348.739 38.3168C348.084 37.1633 347.433 36.0098 346.769 34.8609H346.778ZM67.4765 0.356088C67.1489 0.347112 66.8168 0.356078 66.4891 0.387494C66.0044 0.432376 65.9012 0.535608 65.8922 1.03828C65.8653 2.44756 65.8384 3.85683 65.8384 5.26162C65.8384 11.4373 65.8294 17.613 65.8518 23.7887C65.8563 25.4672 65.2953 26.9618 64.4874 28.3711C63.8726 29.4437 63.0378 30.3413 62.0953 31.1627C61.2964 31.8538 60.4167 32.4193 59.4607 32.7739C58.3881 33.1734 57.2391 33.4112 56.0991 33.5773C54.7571 33.7658 53.4107 33.5773 52.1181 33.1733C51.3372 32.9265 50.5518 32.6213 49.8561 32.1994C49.1694 31.782 48.577 31.1986 47.9711 30.66C46.858 29.6636 46.0502 28.4518 45.534 27.0426C45.3096 26.4322 45.0314 25.8622 45.0358 25.162C45.0628 21.2125 45.0493 17.2629 45.0493 13.3088H44.982C44.982 9.18874 44.982 5.06414 44.982 0.944033C44.982 0.495219 44.8832 0.39648 44.4614 0.39648C43.0252 0.39648 41.589 0.39647 40.1527 0.400958C39.8924 0.400958 39.6276 0.41443 39.3628 0.436871C39.0891 0.459312 38.9275 0.611909 38.8961 0.885685C38.8557 1.25371 38.7973 1.61724 38.7973 1.98527C38.7884 5.26161 38.7884 8.54245 38.7884 11.8233C38.7884 16.4864 38.7614 21.1496 38.7928 25.8083C38.7973 26.5578 38.9993 27.3118 39.1743 28.0479C39.2731 28.4608 39.4975 28.8513 39.6591 29.2507C39.8072 29.6008 39.9194 29.9688 40.0989 30.3054C40.6464 31.3377 41.2927 32.3026 42.0243 33.2137C42.7648 34.1338 43.6176 34.9372 44.5601 35.6194C45.35 36.1939 46.2072 36.71 47.0959 37.1229C48.0923 37.5852 49.129 38.0834 50.1927 38.245C52.6298 38.622 55.0713 38.8194 57.5039 37.9712C58.6753 37.5627 59.8198 37.1409 60.9014 36.535C61.7676 36.0458 62.6248 35.5341 63.3205 34.825C64.1194 34.0126 64.8644 33.1464 65.5736 32.2578C65.9954 31.7282 66.3635 31.1402 66.6597 30.5343C67.0008 29.8342 67.2566 29.0891 67.5214 28.3486C67.6964 27.8549 67.8939 27.3522 67.9657 26.8406C68.069 26.1135 68.1004 25.373 68.1049 24.6369C68.1273 18.2638 68.1408 11.8906 68.1497 5.51295C68.1497 4.01392 68.1318 2.51039 68.1138 1.01135C68.1094 0.472776 68.0061 0.365055 67.4586 0.347103L67.4765 0.356088ZM379.218 35.0718C378.81 35.0449 378.401 35.0045 377.997 35.0045C374.681 34.991 371.359 34.9776 368.043 34.9776C365.529 34.9776 363.011 35.0045 360.498 35.018C359.964 35.018 359.915 34.9686 359.91 34.43C359.906 33.7434 359.906 33.0611 359.906 32.3745C359.906 28.8064 359.91 25.2383 359.901 21.6702C359.901 21.2618 360.058 21.1541 360.44 21.1541C362.347 21.1676 364.259 21.1676 366.167 21.1586C367.666 21.1586 369.169 21.1451 370.668 21.1182C371.148 21.1092 371.323 20.9521 371.346 20.4719C371.386 19.5249 371.4 18.5779 371.368 17.6309C371.35 17.0475 371.077 16.8096 370.502 16.7468C370.148 16.7109 369.793 16.7019 369.438 16.7019C366.449 16.7019 363.46 16.7019 360.471 16.7019C359.959 16.7019 359.928 16.6749 359.928 16.1678C359.919 13.9551 359.919 11.7425 359.919 9.52984C359.919 8.23726 359.924 6.94915 359.919 5.66106C359.919 5.32445 360.045 5.14043 360.404 5.14492C360.682 5.14941 360.956 5.118 361.234 5.118C366.871 5.12697 372.504 5.13596 378.141 5.14044C378.469 5.14044 378.796 5.10453 379.124 5.07311C379.483 5.03721 379.667 4.81281 379.667 4.46273C379.667 3.46188 379.649 2.46102 379.64 1.46017C379.64 1.14151 379.469 0.970962 379.16 0.944033C378.756 0.908128 378.347 0.854265 377.939 0.854265C372.54 0.854265 367.14 0.854265 361.741 0.854265C360.556 0.854265 359.372 0.863249 358.187 0.876714C357.684 0.881202 357.581 0.993403 357.567 1.47812C357.554 1.90001 357.545 2.32188 357.545 2.74377C357.545 8.53795 357.545 14.3322 357.545 20.1263C357.545 25.7904 357.545 31.4499 357.545 37.1139C357.545 37.6794 357.549 38.2449 357.563 38.8149C357.576 39.3715 357.697 39.4882 358.24 39.5061C358.505 39.5151 358.766 39.5106 359.03 39.5106C365.022 39.5106 371.014 39.5106 377.005 39.5016C377.611 39.5016 378.222 39.4971 378.814 39.4074C379.519 39.3041 379.658 39.1201 379.676 38.411C379.698 37.464 379.689 36.517 379.694 35.5655C379.694 35.2379 379.537 35.0763 379.223 35.0584L379.218 35.0718ZM194.011 35.7989C193.517 34.5333 193.005 33.2721 192.512 32.0109C192.301 31.4768 192.112 30.9338 191.897 30.3997C191.502 29.4168 191.084 28.4384 190.689 27.451C190.38 26.67 190.101 25.8756 189.792 25.0947C189.437 24.1926 189.056 23.3039 188.697 22.4063C188.356 21.5536 188.028 20.6963 187.687 19.8436C187.328 18.9415 186.955 18.0438 186.601 17.1372C186.269 16.289 185.959 15.4273 185.622 14.579C185.326 13.8385 184.994 13.1114 184.707 12.3663C184.419 11.6258 184.186 10.8673 183.899 10.1268C183.517 9.15283 183.1 8.19686 182.709 7.22293C181.964 5.36036 181.219 3.49778 180.501 1.62622C180.335 1.19536 180.061 1.03379 179.635 1.03379C178.935 1.03379 178.239 1.03379 177.539 1.03379C177.288 1.03379 177.036 1.0293 176.79 1.03379C176.278 1.03828 175.762 1.03379 175.25 1.06521C174.846 1.09214 174.644 1.31206 174.739 1.60379C174.882 2.0526 175.053 2.49693 175.223 2.93677C175.672 4.08573 176.157 5.21673 176.565 6.37916C176.659 6.65294 176.588 7.02545 176.484 7.31718C176.296 7.86024 176.018 8.3674 175.793 8.90149C175.708 9.10795 175.69 9.34134 175.605 9.54331C174.958 11.0379 174.308 12.5279 173.657 14.0135C173.41 14.579 173.136 15.131 172.898 15.701C172.418 16.85 171.965 18.0079 171.476 19.1524C170.977 20.3058 170.439 21.4459 169.923 22.5948C169.604 23.3129 169.299 24.04 168.985 24.7626C168.585 25.6737 168.172 26.5713 167.786 27.4869C167.436 28.3172 167.14 29.1744 166.786 30.0047C166.198 31.3781 165.574 32.738 164.977 34.1069C164.618 34.9237 164.277 35.745 163.936 36.5709C163.734 37.0646 163.532 37.5627 163.366 38.0699C163.285 38.3168 163.339 38.5815 163.626 38.7027C164.075 38.8867 164.667 38.6893 164.896 38.2629C165.098 37.8859 165.278 37.4954 165.453 37.1049C165.632 36.6965 165.785 36.2746 165.964 35.8662C166.48 34.7038 167.014 33.5459 167.522 32.3834C167.795 31.7506 168.029 31.0998 168.303 30.467C168.742 29.4437 169.209 28.4294 169.636 27.4016C169.743 27.1368 169.887 27.0201 170.152 27.0111C170.259 27.0111 170.363 26.9977 170.466 26.9977C175.102 26.9977 179.738 26.9932 184.37 26.9842C184.707 26.9842 184.895 27.1144 185.012 27.4375C185.357 28.4159 185.712 29.3898 186.089 30.3548C186.471 31.3332 186.888 32.2982 187.269 33.2766C187.611 34.1383 187.92 35.0135 188.266 35.8752C188.584 36.6741 188.935 37.464 189.276 38.2584C189.442 38.6444 189.774 38.8688 190.119 38.8598C191.421 38.8239 192.722 38.788 194.024 38.7656C194.675 38.7566 194.931 38.4604 194.733 37.8365C194.518 37.1498 194.266 36.4766 194.006 35.8034L194.011 35.7989ZM183.504 25.4448C180.82 25.4358 178.132 25.4223 175.448 25.4134C173.962 25.4089 172.472 25.4089 170.986 25.3999C170.852 25.3999 170.717 25.3371 170.583 25.3012C170.618 25.162 170.645 25.0139 170.695 24.8793C170.793 24.6234 170.906 24.3676 171.013 24.1163C171.386 23.268 171.767 22.4243 172.131 21.5715C172.49 20.7322 172.827 19.8795 173.19 19.0402C173.854 17.5008 174.523 15.9613 175.201 14.4264C175.766 13.1473 176.354 11.8771 176.915 10.598C177.041 10.3153 177.095 10.0011 177.198 9.70487C177.27 9.49842 177.373 9.30543 177.512 8.99126C177.665 9.20669 177.772 9.30992 177.822 9.4311C178.356 10.8269 178.859 12.2317 179.411 13.6185C179.913 14.8797 180.488 16.1094 180.99 17.3661C181.403 18.3984 181.753 19.4576 182.153 20.4943C182.436 21.2304 182.759 21.9485 183.064 22.6756C183.365 23.3847 183.67 24.0938 183.957 24.8119C184.173 25.3505 184.092 25.4538 183.495 25.4493L183.504 25.4448ZM223.529 1.3345C223.089 2.18276 222.672 3.03999 222.25 3.89722C221.855 4.69611 221.465 5.49949 221.065 6.29838C220.598 7.22293 220.132 8.1475 219.656 9.06756C219.364 9.63307 219.014 10.1761 218.758 10.7641C218.579 11.1815 218.278 11.2353 217.91 11.2398C215.805 11.2668 213.696 11.3071 211.591 11.3206C209.194 11.3341 206.797 11.3206 204.401 11.3296C203.988 11.3296 203.687 11.1994 203.512 10.8134C203.238 10.2165 202.964 9.62409 202.686 9.03614C202.552 8.75339 202.385 8.48859 202.251 8.20584C201.968 7.61789 201.694 7.02097 201.416 6.42854C201.061 5.68351 200.707 4.93848 200.343 4.19793C199.886 3.25542 199.437 2.29945 198.943 1.37489C198.705 0.930565 198.324 0.674741 197.749 0.70167C196.605 0.755527 195.46 0.728596 194.316 0.755525C193.557 0.773478 193.4 1.14151 193.764 1.81473C194.343 2.8874 194.886 3.97801 195.42 5.06863C195.774 5.79571 196.08 6.54971 196.43 7.28128C196.775 7.99938 197.175 8.69056 197.52 9.40418C198.027 10.4544 198.503 11.5226 199.006 12.5728C199.639 13.8923 200.294 15.2073 200.936 16.5224C201.066 16.7961 201.169 17.0834 201.299 17.3527C201.564 17.8912 201.851 18.4163 202.107 18.9594C202.502 19.7852 202.879 20.6245 203.27 21.4548C203.669 22.3076 204.077 23.1603 204.481 24.0131C204.746 24.5651 205.015 25.1171 205.285 25.6737C205.437 25.9878 205.594 26.302 205.747 26.6162C205.895 26.9214 206.021 27.2356 206.187 27.5318C206.586 28.2229 207.008 28.8827 206.972 29.7534C206.923 31.0415 206.959 32.3341 206.959 33.6221H207.008C207.008 35.0987 206.999 36.5709 207.013 38.0475C207.013 38.5995 207.143 38.7252 207.695 38.7386C208.669 38.7611 209.643 38.779 210.617 38.7566C211.635 38.7341 211.721 38.6534 211.725 37.6301C211.739 34.9058 211.748 32.177 211.725 29.4527C211.725 28.8647 211.86 28.3396 212.12 27.828C212.74 26.5982 213.354 25.3685 213.974 24.1387C214.441 23.2142 214.907 22.2941 215.374 21.374C215.805 20.5168 216.24 19.664 216.676 18.8113C217.066 18.0438 217.466 17.2809 217.865 16.5224C218.076 16.1139 218.309 15.719 218.511 15.3106C218.875 14.5745 219.211 13.8205 219.584 13.0844C220.149 11.9714 220.746 10.8808 221.307 9.76771C221.918 8.56489 222.497 7.34861 223.103 6.15028C223.771 4.82627 224.467 3.52021 225.14 2.19621C225.306 1.87307 225.437 1.52749 225.54 1.17741C225.571 1.06521 225.513 0.840807 225.423 0.791438C224.943 0.513173 223.776 0.845296 223.525 1.33899L223.529 1.3345ZM217.475 13.2774C216.873 14.4982 216.272 15.7145 215.666 16.9353C215.271 17.7342 214.885 18.5375 214.485 19.3274C214.144 20.0052 213.767 20.6649 213.426 21.3426C212.919 22.348 212.434 23.3623 211.932 24.3721C211.658 24.9197 211.375 25.4672 211.074 26.0013C210.962 26.2033 210.76 26.1629 210.671 25.9744C210.361 25.3146 210.083 24.6369 209.777 23.9682C209.62 23.6226 209.436 23.2905 209.275 22.9449C208.467 21.2304 207.668 19.5115 206.856 17.797C206.577 17.209 206.254 16.6346 205.967 16.0511C205.805 15.7235 205.684 15.3734 205.527 15.0413C205.276 14.5117 205.02 13.9866 204.751 13.4659C204.495 12.9767 204.526 12.9184 205.074 12.878C208.624 12.878 212.179 12.878 215.729 12.878C216.227 12.878 216.73 12.8959 217.228 12.8959C217.51 12.8959 217.582 13.0306 217.466 13.2729L217.475 13.2774ZM312.049 6.40609C311.851 6.27593 311.645 6.16373 311.443 6.04255C310.653 5.54886 309.867 5.05067 309.073 4.56595C308.323 4.10816 307.574 3.65486 306.811 3.224C306.012 2.77519 305.204 2.33087 304.378 1.9404C303.907 1.72048 303.378 1.63072 302.888 1.4467C301.677 0.988912 300.406 0.849781 299.136 0.845293C298.651 0.845293 298.162 0.83183 297.673 0.818366C296.973 0.804901 296.268 0.912619 295.568 0.988917C294.204 1.13703 292.898 1.53198 291.614 1.99875C291.381 2.08402 291.174 2.25008 290.936 2.29945C289.711 2.57771 288.742 3.35864 287.709 3.99147C286.825 4.53453 285.968 5.16737 285.304 6.00216C284.586 6.90427 283.778 7.75254 283.149 8.713C282.517 9.68244 282.05 10.7641 281.511 11.7963C280.959 12.86 280.65 14.009 280.344 15.158C280.219 15.6427 280.174 16.1453 280.053 16.6301C279.801 17.6309 279.644 18.6363 279.694 19.673C279.712 20.0007 279.694 20.3328 279.694 20.6604C279.734 21.8543 279.599 23.0526 279.954 24.2285C280.286 25.3281 280.457 26.486 280.861 27.5587C281.269 28.6403 281.834 29.6726 282.4 30.6914C283.275 32.2623 284.451 33.6132 285.739 34.8519C287.041 36.0996 288.486 37.1633 290.115 37.9712C291.565 38.6848 293.077 39.2413 294.657 39.4747C296.623 39.7619 298.62 39.753 300.586 39.3131C301.416 39.1291 302.264 38.9989 303.081 38.7656C303.885 38.5367 304.688 38.2584 305.442 37.8994C306.263 37.5089 307.076 37.0825 307.771 36.4631C308.472 35.8348 309.279 35.3276 309.971 34.6858C310.599 34.0979 311.124 33.4067 311.699 32.7604C311.896 32.5405 311.918 32.2937 311.739 32.0782C311.461 31.7371 311.173 31.4005 310.841 31.1088C310.55 30.853 310.177 30.8934 309.953 31.1672C309.728 31.4364 309.535 31.7372 309.315 32.0154C308.889 32.563 308.507 33.1554 308.018 33.6356C307.471 34.1697 306.851 34.6455 306.21 35.0629C305.536 35.5027 304.805 35.8618 304.082 36.2253C303.642 36.4497 303.176 36.6202 302.713 36.7998C302.57 36.8536 302.408 36.885 302.255 36.903C301.762 36.9523 301.264 37.0107 300.765 37.0332C300.263 37.0556 299.756 37.0421 299.253 37.0421C299.02 37.0421 298.786 37.0287 298.557 37.0107C298.055 36.9703 297.494 37.0466 297.058 36.8536C296.165 36.4542 295.245 36.0188 294.5 35.3995C293.347 34.439 292.292 33.3439 291.26 32.2443C290.25 31.1672 289.312 30.0137 288.347 28.8962C287.095 27.4465 285.833 26.0058 284.608 24.5337C284.218 24.0669 283.877 23.5328 283.625 22.9763C283.167 21.971 282.835 20.9118 282.723 19.8032C282.624 18.8023 282.243 17.8239 282.535 16.7961C282.606 16.5313 282.624 16.2531 282.656 15.9793C282.876 13.9731 283.616 12.1419 284.577 10.3916C284.864 9.86645 285.223 9.37275 285.596 8.90149C286.121 8.23725 286.65 7.56852 287.247 6.9716C287.79 6.42853 288.401 5.93035 289.038 5.49949C289.828 4.96989 290.645 4.46273 291.511 4.07227C292.233 3.74912 293.028 3.57857 293.804 3.39904C294.545 3.2285 295.299 3.0714 296.057 3.02652C297.718 2.93227 299.352 3.06692 300.967 3.56061C302.238 3.94659 303.382 4.55249 304.387 5.34689C305.451 6.19066 306.344 7.24537 307.305 8.21481C308.072 8.98677 308.822 9.78117 309.598 10.5486C309.953 10.8987 310.087 10.8583 310.343 10.4275C310.846 9.5837 311.353 8.74441 311.851 7.89615C311.999 7.64931 312.143 7.39797 312.26 7.13766C312.394 6.84593 312.304 6.59459 312.04 6.41955L312.049 6.40609ZM256.836 0.804902C256.086 0.782461 255.337 0.777974 254.587 0.777974C246.778 0.782462 238.968 0.795925 231.163 0.804902C230.858 0.804902 230.549 0.782459 230.257 0.845293C230.109 0.87671 229.884 1.06521 229.88 1.19087C229.848 2.32189 229.853 3.4529 229.857 4.58391C229.857 4.92052 230.055 5.08209 230.387 5.08658C230.863 5.09106 231.334 5.1135 231.81 5.1135C235.064 5.12697 238.317 5.13595 241.567 5.14942C242.038 5.14942 242.101 5.2302 242.101 5.71043V22.1056H242.092C242.092 26.7553 242.092 31.4005 242.092 36.0502C242.092 36.9569 242.105 37.8679 242.137 38.7745C242.15 39.2234 242.303 39.3445 242.756 39.3625C243.057 39.376 243.362 39.3759 243.663 39.3715C245.041 39.349 245.157 39.2368 245.162 37.8365C245.162 36.5978 245.139 35.3591 245.139 34.1248C245.121 25.1306 245.113 16.1364 245.099 7.14663C245.099 6.66191 245.108 6.1727 245.13 5.68798C245.148 5.28854 245.306 5.14493 245.696 5.14044C247.303 5.14044 248.909 5.14044 250.516 5.13146C252.599 5.12697 254.677 5.12249 256.759 5.10902C257.302 5.10902 257.419 5.00131 257.437 4.46722C257.464 3.4529 257.477 2.44306 257.468 1.42875C257.464 0.935051 257.343 0.831826 256.845 0.813873L256.836 0.804902ZM414.863 1.90001C414.805 0.939547 414.701 0.822845 413.718 0.809381C411.797 0.777964 409.872 0.782457 407.951 0.786945C401.291 0.791433 394.626 0.800404 387.965 0.809381C387.351 0.809381 387.324 0.836315 387.319 1.46017C387.31 2.40716 387.306 3.35415 387.31 4.30115C387.315 5.11799 387.333 5.13146 388.158 5.13146C391.78 5.14044 395.398 5.14493 399.02 5.15391C399.522 5.15391 399.644 5.27957 399.639 5.79122C399.63 6.51381 399.608 7.24088 399.608 7.96347C399.608 12.6895 399.608 17.4155 399.608 22.1415H399.59C399.59 27.3657 399.59 32.5944 399.59 37.8231C399.59 38.1372 399.599 38.4559 399.626 38.7701C399.662 39.2144 399.855 39.4029 400.308 39.4119C400.635 39.4163 400.968 39.3939 401.295 39.367C402.449 39.2638 402.624 39.0797 402.61 37.9218C402.565 34.8923 402.476 31.8673 402.467 28.8423C402.458 24.8389 402.511 20.8399 402.529 16.8365C402.547 13.8474 402.552 10.8583 402.565 7.86923C402.565 7.1601 402.57 6.45097 402.601 5.74633C402.624 5.23917 402.745 5.14044 403.261 5.13595C404.105 5.12698 404.949 5.13595 405.788 5.13595C408.499 5.12698 411.209 5.12697 413.925 5.10004C414.665 5.09106 414.89 4.86218 414.908 4.11266C414.926 3.3766 414.908 2.64054 414.863 1.90449V1.90001ZM270.65 1.61276C270.65 0.944028 270.538 0.818357 269.874 0.809381C268.585 0.791428 267.293 0.791433 266.005 0.800409C265.372 0.804897 265.336 0.849774 265.336 1.4826C265.336 7.64481 265.336 13.807 265.336 19.9692H265.305C265.305 22.339 265.3 24.7087 265.305 27.0785C265.314 30.8844 265.323 34.6903 265.345 38.4963C265.345 39.2817 265.534 39.4388 266.306 39.4433C267.293 39.4523 268.28 39.4523 269.268 39.4433C269.555 39.4433 269.847 39.3894 270.129 39.3401C270.453 39.2817 270.646 39.0932 270.646 38.7431C270.646 38.3886 270.668 38.034 270.668 37.6794C270.668 30.9517 270.668 24.224 270.663 17.4963C270.663 12.2003 270.663 6.90877 270.655 1.61725L270.65 1.61276Z" fill="white"/>
</svg>
