<svg width="264" height="74" viewBox="0 0 264 74" fill="none" xmlns="http://www.w3.org/2000/svg">
<path d="M45.2008 70.3833C46.2378 70.2919 47.0719 70.1921 47.703 70.0823C48.3342 69.9742 49.1442 69.7647 50.133 69.452C51.1219 69.141 51.8751 68.6886 52.3945 68.0933C52.9139 67.4995 53.1736 66.7794 53.1753 65.9329C53.1787 63.8973 50.876 57.0022 46.2653 45.2475C37.9726 45.2325 29.6817 45.2192 21.1087 45.2043C20.6529 46.3002 20.051 47.7322 19.3029 49.5C18.5548 51.2695 17.879 52.8561 17.2771 54.2664C16.6751 55.675 16.1128 57.0521 15.5934 58.3975C14.1935 61.8417 13.4936 64.2665 13.4902 65.6768C13.485 68.7668 16.5152 69.7381 22.0219 70.3434C22.0219 70.6561 22.0219 71.2099 22.0201 71.5242C14.8935 71.5126 7.76852 71.4993 0.641846 71.4876C0.641846 71.1267 0.641846 70.5263 0.643565 70.1671C2.87237 70.0125 4.29805 69.6083 5.62742 68.9531C6.95679 68.3427 7.784 67.8272 8.18298 67.4014C9.60006 65.9678 11.6638 62.4471 14.2984 56.8442C18.0699 48.8315 24.5912 34.2146 33.3138 13.338C32.6414 11.8329 32.1254 10.6737 31.6095 9.51286C33.8779 8.76448 36.172 7.52382 38.492 5.78922C40.8102 4.05463 42.6349 2.35828 43.9677 0.700192C44.2274 0.700192 44.4853 0.700192 44.745 0.700192C57.9287 35.0545 64.861 53.0939 65.5386 54.8169C66.5051 57.3564 67.8912 60.4913 69.7004 64.2216C69.9257 64.6607 70.2404 65.138 70.6446 65.6569C71.0487 66.1741 71.63 66.8027 72.3901 67.5395C73.1503 68.2762 74.1374 68.8982 75.3498 69.4004C76.564 69.9044 77.8675 70.1721 79.2606 70.207C79.2606 70.5979 79.2606 71.2315 79.2588 71.6223C67.9067 71.6024 56.5529 71.5841 45.199 71.5641C45.199 71.2515 45.199 70.696 45.2008 70.3833ZM45.9196 44.1715C39.8351 29.0275 36.1101 19.7175 34.0842 14.9412C31.6164 20.6189 27.6162 29.9156 21.5128 44.1316C29.9929 44.1449 37.7181 44.1582 45.9196 44.1715ZM242.304 1.15754C239.674 6.0337 237.315 9.25176 234.071 13.1716C230.83 17.0915 226.704 21.7132 223.412 26.5378C220.121 31.3624 217.661 36.3933 216.501 41.0266C215.34 45.6599 215.479 49.8991 216.483 53.2868C217.488 56.6745 219.359 59.2141 222.339 60.7341C225.32 62.2558 229.413 62.7581 233.92 61.8683C238.428 60.9786 243.351 58.6952 248.395 53.39C250.447 51.2313 252.519 48.5737 254.273 45.472C256.834 40.9484 258.722 35.4802 259.885 31.1861C261.845 23.9501 261.747 20.0551 261.532 17.8898C261.316 15.7245 260.98 15.2904 260.728 15.0177C260.473 14.7433 260.301 14.6302 259.245 14.3242C258.189 14.0182 256.251 13.5209 254.645 12.7592C253.039 11.9975 251.764 10.9714 251.092 8.81936C250.419 6.66733 250.347 3.39106 252.559 1.78286C253.202 1.31553 254.04 0.987905 254.911 0.824923C257.037 0.425783 259.371 0.99622 260.924 4.07292C263.115 8.4119 263.753 17.7368 262.012 27.3428C260.272 36.9471 256.151 46.8308 251.365 54.4111C246.579 61.9914 241.126 67.2684 235.501 70.3151C229.875 73.3619 224.08 74.1785 218.843 73.322C213.606 72.4655 208.929 69.9376 206.416 65.2311C204.308 61.2829 203.723 55.8031 205.209 50.2783C205.494 49.2173 205.855 48.1562 206.315 47.0403C208.894 40.7888 214.585 32.8542 228.107 17.8865C229.536 16.3049 231.053 14.6451 235.263 10.0351C222.965 10.5706 214.535 10.5373 210.397 10.993C208.707 11.1793 207.732 11.447 206.858 11.7747C203.843 12.9039 202.032 14.7333 201.111 16.4695C200.189 18.2058 200.156 19.8506 200.371 21.2293C200.584 22.6096 201.045 23.7256 201.632 24.1879C202.218 24.6502 202.932 24.4606 203.692 23.9451C204.454 23.4295 205.262 22.5913 206.442 22.1273C207.62 21.6633 209.169 21.5769 210.206 22.0209C211.243 22.4649 211.771 23.4428 212.034 24.4573C212.298 25.4718 212.298 26.5245 211.649 27.6754C211.001 28.8262 209.702 30.0752 207.8 30.4477C205.898 30.8203 203.394 30.3197 201.797 28.2275C200.199 26.1354 199.511 22.4533 199.405 19.3932C199.3 16.3332 199.778 13.8967 201.444 11.2907C203.112 8.68631 205.969 5.91229 208.612 4.18269C211.257 2.45308 213.689 1.76623 215.747 1.43361C217.806 1.10099 219.491 1.12428 221.976 1.13592C224.461 1.14756 227.744 1.14922 231.397 1.16419C235.05 1.17916 239.069 1.20743 241.633 0.452393C241.857 0.686887 242.082 0.921382 242.306 1.15588M140.52 71.6207H174.255V70.3467C168.157 69.5934 165.107 68.1299 165.107 65.9595V23.6407C165.107 16.9418 163.546 11.5518 160.425 7.4706C157.301 3.39106 152.887 1.34879 147.179 1.34879C143.714 1.34879 140.288 2.24519 136.897 4.038C133.505 5.8308 130.724 7.82483 128.554 10.0184C126.382 12.212 124.444 14.5836 122.736 17.1314C122.638 17.0849 122.54 17.0366 122.444 16.9901V1.20909H121.493C113.907 3.99309 106.321 6.77543 98.7351 9.55943V10.4791C100.783 11.3289 103.076 12.4366 105.614 13.8053C106.639 14.4672 107.15 15.48 107.15 16.8487V64.97C107.15 66.4335 106.333 67.6126 104.697 68.509C103.062 69.4054 101.026 69.9725 98.5872 70.207V71.6223H130.64V70.207C130.444 70.1605 130.017 70.1006 129.359 70.0308C128.7 69.9592 128.272 69.901 128.078 69.8545C127.882 69.8079 127.515 69.7381 126.98 69.6416C126.444 69.5485 126.065 69.4537 125.847 69.3589C125.627 69.2657 125.323 69.146 124.932 69.0046C124.542 68.8633 124.261 68.6986 124.091 68.509C123.919 68.3211 123.713 68.0966 123.469 67.8372C123.224 67.5777 123.04 67.2833 122.92 66.9524C122.798 66.6231 122.688 66.2439 122.59 65.8198V18.5467C124.736 16.2816 126.87 14.6318 128.993 13.5924C131.115 12.5546 133.517 12.0358 136.2 12.0358C140.835 12.0358 144.212 13.6756 146.336 16.9535C148.458 20.2331 149.52 24.6319 149.52 30.1517V65.5354C149.52 68.1781 146.519 69.6649 140.518 69.9942V71.6223L140.52 71.6207Z" fill="white"/>
</svg>
