<svg width="370" height="52" viewBox="0 0 370 52" fill="none" xmlns="http://www.w3.org/2000/svg">
<g clip-path="url(#clip0_2663_466)">
<path d="M366.853 12.4177C364.934 8.78578 362.2 6.08067 358.653 4.30035C355.103 2.52207 350.836 1.62988 345.85 1.62988H215.736V10.89C215.494 10.177 215.21 9.49261 214.873 8.84485C213.674 6.53696 211.875 4.75664 209.479 3.50593C207.08 2.25523 204.059 1.62988 200.415 1.62988H174.449V10.7963C174.159 10.228 173.836 9.68612 173.478 9.17077C171.537 6.3577 168.923 4.2535 165.637 2.85817C162.352 1.46284 158.672 0.766197 154.596 0.766197C147.068 0.766197 141.193 2.85817 136.974 7.04213C134.864 9.1341 133.282 11.7903 132.228 15.0128V1.63191H123.238V34.6737H122.879C122.781 34.3845 122.59 34.0015 122.304 33.5188C122.015 33.038 121.703 32.5451 121.37 32.0399C121.035 31.5347 120.746 31.1375 120.507 30.8503L99.4287 1.63191H90.5094V15.3021C90.1154 14.1206 89.6483 13.0125 89.1061 11.9838C87.1159 8.20931 84.2626 5.39421 80.5462 3.5426C76.8298 1.69099 72.3823 0.76416 67.2037 0.76416C62.0251 0.76416 57.6365 1.69099 53.8977 3.5426C50.157 5.39421 47.2915 8.20728 45.3033 11.9838C45.2627 12.0612 45.2261 12.1407 45.1855 12.2181C44.755 11.1202 44.2209 10.1017 43.5771 9.17077C41.6357 6.3577 39.022 4.2535 35.7361 2.85817C32.4523 1.46488 28.7725 0.766197 24.6966 0.766197C17.1684 0.766197 11.2932 2.85817 7.07518 7.04213C2.85514 11.2281 0.745117 17.6731 0.745117 26.3771C0.745117 32.3414 1.69148 37.2118 3.58623 40.9863C5.48099 44.7629 8.21244 47.5413 11.7867 49.3196C15.3589 51.0999 19.6622 51.9901 24.6986 51.9901C28.8212 51.9901 32.5254 51.3036 35.8113 49.9348C39.0951 48.5639 41.6966 46.4719 43.6157 43.6588C44.2595 42.7137 44.7936 41.683 45.2201 40.5667C45.2485 40.6237 45.2749 40.6808 45.3053 40.7378C47.2956 44.5388 50.161 47.3641 53.8998 49.2157C57.6405 51.0673 62.0738 51.9942 67.2057 51.9942C72.3376 51.9942 76.8318 51.0694 80.5482 49.2157C84.2646 47.3641 87.1179 44.5388 89.1081 40.7378C89.6503 39.703 90.1154 38.5908 90.5114 37.4094V51.1264H99.5018V17.7933H99.8613C100.052 18.1294 100.401 18.7201 100.905 19.5614C101.409 20.4027 101.851 21.1115 102.235 21.69L123.382 51.1264H132.228V37.9044C132.588 39.0023 133.006 40.031 133.488 40.9884C135.382 44.7649 138.114 47.5434 141.688 49.3216C145.26 51.102 149.564 51.9921 154.6 51.9921C158.723 51.9921 162.427 51.3057 165.713 49.9368C168.996 48.5659 171.598 46.4739 173.517 43.6609C173.86 43.1577 174.171 42.6302 174.451 42.0802V51.1284H183.801V32.7305H199.122L208.185 51.1284H254.65V43.1211H225.088V29.8461H251.054V21.8387H225.088V9.71668H250.118H265.869V51.1284H275.218V9.7126H288.021V51.1244H345.85C350.838 51.1244 355.105 50.2342 358.653 48.4559C362.2 46.6776 364.934 43.9583 366.853 40.3039C368.77 36.6496 369.731 32.0073 369.731 26.3792C369.731 20.751 368.77 16.0517 366.853 12.4197V12.4177ZM37.2836 32.9423C37.2836 35.348 36.7678 37.3788 35.7382 39.039C34.7065 40.6991 33.2565 41.9498 31.3861 42.7911C29.5157 43.6324 27.3326 44.054 24.8408 44.054C21.5326 44.054 18.8093 43.4287 16.6769 42.178C14.5425 40.9273 12.9605 39.0512 11.9288 36.5498C10.8972 34.0504 10.3834 30.9216 10.3834 27.1715V25.5847C10.3834 21.8815 10.8972 18.7792 11.9288 16.2778C12.9585 13.7784 14.5547 11.8901 16.7114 10.615C18.8681 9.34187 21.5773 8.70226 24.8388 8.70226C27.1884 8.70226 29.2741 9.13614 31.0957 10.0019C32.9174 10.8676 34.343 12.1305 35.3746 13.7886C36.4043 15.4487 36.9201 17.4796 36.9201 19.8853H42.7953C42.4764 21.8876 42.314 24.0489 42.314 26.3792C42.314 28.7095 42.4825 30.9196 42.8135 32.9443H37.2796L37.2836 32.9423ZM82.5262 27.2428C82.5262 29.9846 82.1911 32.4005 81.5189 34.4924C80.8467 36.5844 79.8638 38.3403 78.5702 39.7601C77.2745 41.1798 75.6803 42.2493 73.7876 42.9703C71.8928 43.6914 69.6995 44.052 67.2057 44.052C64.7119 44.052 62.5186 43.6914 60.6238 42.9703C58.7291 42.2493 57.1349 41.1798 55.8412 39.7601C54.5456 38.3423 53.5748 36.5865 52.929 34.4924C52.2812 32.4005 51.9583 29.9826 51.9583 27.2428V25.656C51.9583 22.8674 52.2812 20.4149 52.929 18.2964C53.5769 16.18 54.5476 14.4139 55.8412 12.9942C57.1369 11.5764 58.7291 10.505 60.6238 9.7839C62.5165 9.06281 64.7119 8.70226 67.2057 8.70226C69.6995 8.70226 71.8928 9.06281 73.7876 9.7839C75.6823 10.505 77.2765 11.5764 78.5702 12.9942C79.8658 14.4139 80.8467 16.182 81.5189 18.2964C82.1891 20.4129 82.5262 22.8674 82.5262 25.656V27.2428ZM167.185 32.9423C167.185 35.348 166.669 37.3788 165.64 39.039C164.608 40.6991 163.158 41.9498 161.287 42.7911C159.417 43.6324 157.234 44.054 154.742 44.054C151.434 44.054 148.711 43.4287 146.578 42.178C144.444 40.9273 142.862 39.0512 141.83 36.5498C140.799 34.0504 140.285 30.9216 140.285 27.1715V25.5847C140.285 21.8815 140.799 18.7792 141.83 16.2778C142.86 13.7784 144.456 11.8901 146.613 10.615C148.769 9.34187 151.479 8.70226 154.74 8.70226C157.09 8.70226 159.175 9.13614 160.997 10.0019C162.819 10.8676 164.244 12.1305 165.276 13.7886C166.306 15.4487 166.821 17.4796 166.821 19.8853H174.445V32.9443H167.181L167.185 32.9423ZM205.232 22.7696C203.937 24.165 202.091 24.8616 199.694 24.8616H183.799V9.63927H199.694C201.323 9.63927 202.69 9.92852 203.795 10.505C204.897 11.0815 205.736 11.9125 206.313 12.9942C206.887 14.0758 207.176 15.4121 207.176 16.9989C207.176 19.4514 206.528 21.3763 205.234 22.7696H205.232ZM208.183 31.1396C210.963 29.8889 213.073 28.025 214.513 25.5481C215.005 24.7007 215.411 23.8085 215.736 22.8715V45.9158L208.183 31.1396ZM297.371 43.115V29.84H323.337V21.8326H297.371V9.63927H326.07V43.115H297.371ZM360.092 27.1715C360.092 29.8176 359.78 32.1377 359.158 34.1339C358.535 36.1302 357.623 37.7903 356.425 39.1123C355.227 40.4363 353.738 41.4324 351.965 42.1067C350.19 42.7809 348.153 43.117 345.85 43.117H335.42V9.63927H345.85C348.151 9.63927 350.19 9.97537 351.965 10.6496C353.738 11.3239 355.225 12.322 356.425 13.644C357.623 14.968 358.535 16.6261 359.158 18.6223C359.782 20.6186 360.092 22.9631 360.092 25.656V27.1715Z" fill="white"/>
</g>
<defs>
<clipPath id="clip0_2663_466">
<rect width="368.986" height="51.2239" fill="white" transform="translate(0.745117 0.766113)"/>
</clipPath>
</defs>
</svg>
